<svg id="Layer_3" height="512" viewBox="0 0 64 64" width="512" xmlns="http://www.w3.org/2000/svg" data-name="Layer 3"><path d="m40 43-7 3 3-7 6-6v-13h-36v32h36v-11z" fill="#f4b2b0"/><g fill="#b3404a"><path d="m57 5h-50a6.006 6.006 0 0 0 -6 6v42a6.006 6.006 0 0 0 6 6h50a6.006 6.006 0 0 0 6-6v-42a6.006 6.006 0 0 0 -6-6zm-50 2h50a4 4 0 0 1 4 4v2h-58v-2a4 4 0 0 1 4-4zm50 50h-50a4 4 0 0 1 -4-4v-38h58v38a4 4 0 0 1 -4 4z"/><path d="m7 9h2v2h-2z"/><path d="m11 9h2v2h-2z"/><path d="m15 9h2v2h-2z"/><path d="m45 9h12v2h-12z"/><path d="m55.171 20a3.8 3.8 0 0 0 -2.707 1.122l-1.464 1.464-.293-.293a1 1 0 0 0 -1.414 0l-3 3a1 1 0 0 0 0 1.414l.293.293-3.586 3.586v-10.586a1 1 0 0 0 -1-1h-36a1 1 0 0 0 -1 1v32a1 1 0 0 0 1 1h36a1 1 0 0 0 1-1v-10.586l9-9 .293.293a1 1 0 0 0 1.414 0l3-3a1 1 0 0 0 0-1.414l-.293-.293 1.464-1.464a3.828 3.828 0 0 0 -2.707-6.536zm-14.171 31h-34v-30h34v11.586l-4.414 4.414h-25.586v2h23.912l-.857 2h-23.055v2h22.2l-1.117 2.606a1 1 0 0 0 .917 1.394.989.989 0 0 0 .394-.081l7-3a1 1 0 0 0 .313-.212l.293-.293zm-4.663-10.249 1.911 1.911-3.348 1.438zm3.663.835-2.586-2.586 10.586-10.586 2.586 2.586zm13-11-4.586-4.586 1.586-1.586 4.586 4.586zm3.464-5.464-1.464 1.464-2.586-2.586 1.464-1.464a1.829 1.829 0 1 1 2.586 2.586z"/><path d="m13 25h18v2h-18z"/><path d="m33 25h4v2h-4z"/><path d="m11 29h26v2h-26z"/><path d="m11 33h26v2h-26z"/><path d="m58 45h-12a1 1 0 0 0 -1 1v6a1 1 0 0 0 1 1h12a1 1 0 0 0 1-1v-6a1 1 0 0 0 -1-1zm-1 6h-10v-4h10z"/></g></svg>