<svg id="Capa_1" enable-background="new 0 0 512 512" height="512" viewBox="0 0 512 512" width="512" xmlns="http://www.w3.org/2000/svg"><g><path d="m348.415 116.154c4.143 0 7.5-3.357 7.5-7.5v-47.129c0-9.649-7.85-17.5-17.5-17.5h-164.83c-9.65 0-17.5 7.851-17.5 17.5v188.466c0 9.649 7.85 17.5 17.5 17.5h164.83c9.65 0 17.5-7.851 17.5-17.5v-108.65c0-4.143-3.357-7.5-7.5-7.5s-7.5 3.357-7.5 7.5v108.65c0 1.379-1.121 2.5-2.5 2.5h-10.641v-40.318c0-16.377-13.324-29.7-29.701-29.7h-16.171v-1.257c11.472-8.139 18.98-21.515 18.98-36.619v-14.839c0-24.748-20.135-44.883-44.883-44.883s-44.883 20.135-44.883 44.883v14.839c0 15.105 7.508 28.481 18.98 36.619v1.257h-16.171c-16.377 0-29.701 13.323-29.701 29.7v40.318h-10.641c-1.379 0-2.5-1.121-2.5-2.5v-188.466c0-1.379 1.121-2.5 2.5-2.5h164.83c1.379 0 2.5 1.121 2.5 2.5v47.129c.002 4.143 3.359 7.5 7.502 7.5zm-103.317 71.98c3.492.875 7.143 1.346 10.902 1.346s7.41-.471 10.902-1.346v10.077c0 6.012-4.891 10.902-10.902 10.902-6.012 0-10.902-4.891-10.902-10.902zm-18.981-58.376c0-16.478 13.405-29.883 29.883-29.883s29.883 13.405 29.883 29.883v14.839c0 16.478-13.405 29.883-29.883 29.883s-29.883-13.405-29.883-29.883zm-26.891 82.415c0-8.105 6.595-14.7 14.701-14.7h16.171v.738c0 14.282 11.62 25.902 25.902 25.902s25.902-11.62 25.902-25.902v-.738h16.171c8.106 0 14.701 6.595 14.701 14.7v40.318h-113.548z"/><path d="m310.274 309.016c4.143 0 7.5-3.357 7.5-7.5s-3.357-7.5-7.5-7.5h-108.548c-4.143 0-7.5 3.357-7.5 7.5s3.357 7.5 7.5 7.5z"/><path d="m338.415 335.539h-164.83c-4.143 0-7.5 3.357-7.5 7.5s3.357 7.5 7.5 7.5h164.83c4.143 0 7.5-3.357 7.5-7.5 0-4.142-3.357-7.5-7.5-7.5z"/><path d="m118.515 457.461c0 4.143 3.357 7.5 7.5 7.5h47.57c4.142 0 7.5-3.357 7.5-7.5s-3.358-7.5-7.5-7.5h-47.57c-4.143 0-7.5 3.357-7.5 7.5z"/><path d="m338.415 377.064h-35.645c-4.143 0-7.5 3.357-7.5 7.5s3.357 7.5 7.5 7.5h35.645c4.143 0 7.5-3.357 7.5-7.5s-3.357-7.5-7.5-7.5z"/><path d="m173.585 377.064c-4.143 0-7.5 3.357-7.5 7.5s3.357 7.5 7.5 7.5h96.499c4.143 0 7.5-3.357 7.5-7.5s-3.357-7.5-7.5-7.5z"/><path d="m421.159 0h-330.318c-12.406 0-22.5 10.094-22.5 22.5v215.348c0 4.143 3.357 7.5 7.5 7.5s7.5-3.357 7.5-7.5v-215.348c0-4.136 3.364-7.5 7.5-7.5h330.318c4.136 0 7.5 3.364 7.5 7.5v380.423h-71.577c-12.406 0-22.5 10.094-22.5 22.5v71.577h-243.741c-4.136 0-7.5-3.364-7.5-7.5v-218.966c0-4.143-3.357-7.5-7.5-7.5s-7.5 3.357-7.5 7.5v218.966c0 12.406 10.094 22.5 22.5 22.5h251.241c8.681 0 16.843-3.381 22.982-9.519l69.077-69.077c6.138-6.139 9.519-14.301 9.519-22.981v-387.923c-.001-12.406-10.095-22.5-22.501-22.5zm-66.703 491.874c-1.438 1.438-3.09 2.576-4.874 3.424v-69.875c0-4.136 3.364-7.5 7.5-7.5h69.875c-.848 1.784-1.986 3.436-3.424 4.874z"/></g></svg>