<?xml version="1.0" encoding="iso-8859-1"?>
<!-- Generator: Adobe Illustrator 19.0.0, SVG Export Plug-In . SVG Version: 6.00 Build 0)  -->
<svg version="1.1" id="Capa_1" xmlns="http://www.w3.org/2000/svg" xmlns:xlink="http://www.w3.org/1999/xlink" x="0px" y="0px"
	 viewBox="0 0 191.147 191.147" style="enable-background:new 0 0 191.147 191.147;" xml:space="preserve">
<rect x="3.413" y="3.413" style="fill:#33BCEA;" width="122.88" height="184.32"/>
<path d="M126.293,191.147H3.413c-1.884,0-3.413-1.527-3.413-3.413V3.413C0,1.527,1.529,0,3.413,0h122.88
	c1.886,0,3.413,1.527,3.413,3.413v184.32C129.707,189.619,128.179,191.147,126.293,191.147z M6.827,184.32H122.88V6.827H6.827
	V184.32z"/>
<rect x="126.293" y="3.413" style="fill:#DDDDDD;" width="61.44" height="47.787"/>
<path d="M187.733,54.613h-61.44c-1.886,0-3.413-1.527-3.413-3.413V3.413c0-1.886,1.527-3.413,3.413-3.413h61.44
	c1.886,0,3.413,1.527,3.413,3.413V51.2C191.147,53.086,189.619,54.613,187.733,54.613z M129.707,47.787h54.613V6.827h-54.613V47.787
	z"/>
<rect x="126.293" y="139.947" style="fill:#DDDDDD;" width="61.44" height="47.787"/>
<path d="M187.733,191.147h-61.44c-1.886,0-3.413-1.527-3.413-3.413v-47.787c0-1.886,1.527-3.413,3.413-3.413h61.44
	c1.886,0,3.413,1.527,3.413,3.413v47.787C191.147,189.619,189.619,191.147,187.733,191.147z M129.707,184.32h54.613v-40.96h-54.613
	V184.32z"/>
<rect x="126.293" y="51.2" style="fill:#DDDDDD;" width="61.44" height="44.373"/>
<path d="M187.733,98.987h-61.44c-1.886,0-3.413-1.527-3.413-3.413V51.2c0-1.886,1.527-3.413,3.413-3.413h61.44
	c1.886,0,3.413,1.527,3.413,3.413v44.373C191.147,97.459,189.619,98.987,187.733,98.987z M129.707,92.16h54.613V54.613h-54.613
	V92.16z"/>
<rect x="126.293" y="95.573" style="fill:#DDDDDD;" width="61.44" height="44.373"/>
<path d="M187.733,143.36h-61.44c-1.886,0-3.413-1.527-3.413-3.413V95.573c0-1.886,1.527-3.413,3.413-3.413h61.44
	c1.886,0,3.413,1.527,3.413,3.413v44.373C191.147,141.833,189.619,143.36,187.733,143.36z M129.707,136.533h54.613V98.987h-54.613
	V136.533z"/>
<g>
</g>
<g>
</g>
<g>
</g>
<g>
</g>
<g>
</g>
<g>
</g>
<g>
</g>
<g>
</g>
<g>
</g>
<g>
</g>
<g>
</g>
<g>
</g>
<g>
</g>
<g>
</g>
<g>
</g>
</svg>
