<svg height="512" viewBox="0 0 512 512" width="512" xmlns="http://www.w3.org/2000/svg"><g><g><path d="m288 136h208v240h-32v64l-64-64h-176v-72" fill="#ffda44"/><path d="m288 64v240h-176l-64 64v-64h-32v-240z" fill="#78b9eb"/></g><g><path d="m496 128h-200v-64a8 8 0 0 0 -8-8h-272a8 8 0 0 0 -8 8v240a8 8 0 0 0 8 8h24v56a8 8 0 0 0 13.66 5.66l61.65-61.66h100.69v64a8 8 0 0 0 8 8h172.69l61.65 61.66a8 8 0 0 0 13.66-5.66v-56h24a8 8 0 0 0 8-8v-240a8 8 0 0 0 -8-8zm-384 168a8.008 8.008 0 0 0 -5.66 2.34l-50.34 50.35v-44.69a8 8 0 0 0 -8-8h-24v-224h256v224zm376 72h-24a8 8 0 0 0 -8 8v44.69l-50.34-50.35a8.008 8.008 0 0 0 -5.66-2.34h-168v-56h56a8 8 0 0 0 8-8v-160h192z"/><path d="m341.31 311.534a8 8 0 0 0 10.224-4.843l12.39-34.691h40.152l12.39 34.691a8 8 0 0 0 15.068-5.382l-40-112a8 8 0 0 0 -15.068 0l-40 112a8 8 0 0 0 4.844 10.225zm42.69-95.748 14.362 40.214h-28.724z"/><path d="m194.19 214.876a47.708 47.708 0 0 0 5.81-22.876v-32a48 48 0 0 0 -96 0v32a47.976 47.976 0 0 0 80.228 35.542l10.115 10.115a8 8 0 0 0 11.314-11.314zm-42.19 9.124a32.036 32.036 0 0 1 -32-32v-32a32 32 0 0 1 64 0v32a31.848 31.848 0 0 1 -1.882 10.8l-8.461-8.461a8 8 0 0 0 -11.314 11.314l10.55 10.55a31.852 31.852 0 0 1 -20.893 7.797z"/></g></g></svg>