<svg height="512" viewBox="0 0 512 512" width="512" xmlns="http://www.w3.org/2000/svg"><g><g fill="#57a4ff"><path d="m288 360a128 128 0 1 0 -128-128 128 128 0 0 0 128 128zm0-232a24 24 0 1 1 -24 24 24.006 24.006 0 0 1 24-24zm-24 72h48v128h-48z"/><path d="m80 408v20a19.994 19.994 0 0 0 20 20h28v-432h-28a19.994 19.994 0 0 0 -20 20v20h24v32h-24v48h24v32h-24v48h24v32h-24v48h24v32h-24v48h24v32z"/><path d="m360 496 24-16 24 16v-48h-48z"/></g><g fill="#004fac"><path d="m428 8h-328a28.031 28.031 0 0 0 -28 28v12h-16a8 8 0 0 0 -8 8v32a8 8 0 0 0 8 8h16v32h-16a8 8 0 0 0 -8 8v32a8 8 0 0 0 8 8h16v32h-16a8 8 0 0 0 -8 8v32a8 8 0 0 0 8 8h16v32h-16a8 8 0 0 0 -8 8v32a8 8 0 0 0 8 8h16v32h-16a8 8 0 0 0 -8 8v32a8 8 0 0 0 8 8h16v12a28.031 28.031 0 0 0 28 28h252v40a8.009 8.009 0 0 0 12.44 6.66l19.56-13.05 19.56 13.05a8.026 8.026 0 0 0 4.44 1.34 8.015 8.015 0 0 0 8-8v-40h12a28.031 28.031 0 0 0 28-28v-392a28.031 28.031 0 0 0 -28-28zm-364 72v-16h32v16zm0 80v-16h32v16zm0 80v-16h32v16zm0 80v-16h32v16zm0 80v-16h32v16zm56 40h-20a12.01 12.01 0 0 1 -12-12v-12h16a8 8 0 0 0 8-8v-32a8 8 0 0 0 -8-8h-16v-32h16a8 8 0 0 0 8-8v-32a8 8 0 0 0 -8-8h-16v-32h16a8 8 0 0 0 8-8v-32a8 8 0 0 0 -8-8h-16v-32h16a8 8 0 0 0 8-8v-32a8 8 0 0 0 -8-8h-16v-32h16a8 8 0 0 0 8-8v-32a8 8 0 0 0 -8-8h-16v-12a12.01 12.01 0 0 1 12-12h20zm280 41.05-11.56-7.71a8.026 8.026 0 0 0 -8.88 0l-11.56 7.71v-25.05h32zm40-53.05a12.01 12.01 0 0 1 -12 12h-292v-416h292a12.01 12.01 0 0 1 12 12z"/><path d="m288 120a32 32 0 1 0 32 32 32.036 32.036 0 0 0 -32-32zm0 48a16 16 0 1 1 16-16 16.019 16.019 0 0 1 -16 16z"/><path d="m312 192h-48a8 8 0 0 0 -8 8v128a8 8 0 0 0 8 8h48a8 8 0 0 0 8-8v-128a8 8 0 0 0 -8-8zm-8 128h-32v-112h32z"/><path d="m288 96c-74.99 0-136 61.009-136 136s61.01 136 136 136 136-61.009 136-136-61.01-136-136-136zm0 256a120 120 0 1 1 120-120 120.136 120.136 0 0 1 -120 120z"/></g></g></svg>