<svg id="Layer_1" enable-background="new 0 0 512.266 512.266" height="512" viewBox="0 0 512.266 512.266" width="512" xmlns="http://www.w3.org/2000/svg"><g><path d="m394.267 222.579-75.121 17.929s.162 40.922 0 247.081c0 13.475 10.703 24.399 24.178 24.399s24.399-10.924 24.399-24.399v-195.024h10.535v195.024c0 13.475 10.924 24.399 24.399 24.399s24.404-10.924 24.404-24.399c0-11.352 0-293.893 0-293.893l-16.185 18.769c-4.339 5.029-10.149 8.568-16.609 10.114z"/><path d="m303.908 138.376h15.46v37.002l50.219-12.021 36.52-24.981-30.324 35.156-86.997 20.824c-10.921 2.614-17.654 13.587-15.041 24.508 2.611 10.905 13.568 17.658 24.508 15.041l93.375-22.351c4.147-.993 7.877-3.265 10.663-6.494l48.181-55.857c17.445-20.222 3.017-51.49-23.584-51.49h-53.913-.175-90.9c12.108 9.863 20.344 24.313 22.008 40.663z"/><path d="m353.026 39.148h39.564c8.138 0 14.911 5.898 16.304 13.642h4.601c.886-3.402 1.36-6.97 1.36-10.65 0-23.273-18.867-42.14-42.14-42.14s-42.14 18.867-42.14 42.14c0 3.679.474 7.248 1.36 10.65h4.786c1.395-7.744 8.167-13.642 16.305-13.642z"/><g><path d="m262.417 220.101c-3.224-16.731 7.747-32.946 24.318-36.912l5.258-1.258-.189-37.667c-.132-26.23-21.701-47.69-47.93-47.69h-9.449v9.17c0 2.244-1.819 4.063-4.063 4.063h-5.716c-.174.147-.312.262-.486.408-1.451 7.672-8.194 13.495-16.282 13.495h-39.564c-8.229 0-15.058-6.032-16.344-13.903h-5.323c-2.244 0-4.063-1.819-4.063-4.063v-9.17h-7.444c-4.747 0-9.343 1.667-12.986 4.711l-58.904 49.211c-5.536 4.625-8.194 11.845-6.978 18.956l12.378 72.402c-8.764 6.334-14.482 16.632-14.482 28.247v31.461c0 5.355 4.041 10.031 9.385 10.377 5.856.379 10.723-4.258 10.723-10.032v-31.805c0-1.63.277-3.194.768-4.661 3.761 4.916 9.659 7.974 16.062 7.974 4.436 0 8.899-1.449 12.581-4.364.083 1.166.041 129.564.053 232.822 0 5.774 4.867 10.411 10.723 10.032 5.344-.346 9.385-5.022 9.385-10.377v-231.426c0-11.425-5.529-21.583-14.05-27.94l-11.634-68.051 37.377-31.224v343.904c0 13.627 11.152 25.109 24.777 24.853 13.208-.249 23.838-11.033 23.838-24.3v-196.67h10.494v196.741c0 13.598 11.128 25.078 24.724 24.848 13.231-.224 23.943-11.018 23.943-24.301v-350.88c4.073 0 8.332 3.314 8.352 7.386v148.799c.056 11.152 9.486 20.152 20.625 20.152h.104c11.186-.056 20.089-9.17 20.033-20.355v-47.28c-14.295-.539-27.144-10.788-30.014-25.683z"/></g><path d="m146.526 69.668c0 4.352.663 8.55 1.892 12.498h3.591c1.393-7.743 8.166-13.642 16.304-13.642h39.564c8.138 0 14.911 5.898 16.304 13.642h4.407c1.23-3.948 1.892-8.145 1.892-12.498 0-23.183-18.794-41.977-41.977-41.977-23.184 0-41.977 18.794-41.977 41.977z"/><path d="m222.954 90.063h-8.552v-4.959c0-3.604-2.922-6.526-6.526-6.526h-39.564c-3.604 0-6.526 2.922-6.526 6.526v4.958h-7.6c-1.324 0-2.398 1.073-2.398 2.398v7.314c0 1.324 1.073 2.398 2.398 2.398h7.6v4.958c0 3.604 2.922 6.526 6.526 6.526h39.564c3.604 0 6.526-2.922 6.526-6.526v-4.958h8.552c1.324 0 2.398-1.073 2.398-2.398v-7.314c0-1.324-1.073-2.397-2.398-2.397z"/><path d="m407.668 72.795h-8.552v4.959c0 3.604-2.922 6.526-6.526 6.526h-39.564c-3.604 0-6.526-2.922-6.526-6.526v-4.958h-7.6c-1.324 0-2.398-1.073-2.398-2.398v-7.314c0-1.324 1.073-2.398 2.398-2.398h7.6v-4.958c0-3.604 2.922-6.526 6.526-6.526h39.564c3.604 0 6.526 2.922 6.526 6.526v4.958h8.552c1.324 0 2.398 1.073 2.398 2.398v7.314c0 1.324-1.073 2.397-2.398 2.397z"/><path d="m399.117 60.686v-4.958c0-3.604-2.922-6.526-6.526-6.526h-39.564c-3.604 0-6.526 2.922-6.526 6.526v4.958h-7.6c-1.324 0-2.398 1.073-2.398 2.398v7.314c0 1.324 1.073 2.398 2.398 2.398h7.6v4.959c0 3.604 2.922 6.526 6.526 6.526h39.564c3.604 0 6.526-2.922 6.526-6.526v-4.959h8.552c1.324 0 2.398-1.073 2.398-2.398v-7.314c0-1.324-1.073-2.398-2.398-2.398z"/></g></svg>