<svg id="_x31__x2C_5" enable-background="new 0 0 24 24" height="512" viewBox="0 0 24 24" width="512" xmlns="http://www.w3.org/2000/svg"><path d="m17.5 24c-3.584 0-6.5-2.916-6.5-6.5s2.916-6.5 6.5-6.5 6.5 2.916 6.5 6.5-2.916 6.5-6.5 6.5zm0-11.5c-2.757 0-5 2.243-5 5s2.243 5 5 5 5-2.243 5-5-2.243-5-5-5z"/><path d="m15.75 20c-.192 0-.384-.073-.53-.22-.293-.293-.293-.768 0-1.061l3.5-3.5c.293-.293.768-.293 1.061 0s.293.768 0 1.061l-3.5 3.5c-.147.147-.339.22-.531.22z"/><path d="m19.25 20c-.192 0-.384-.073-.53-.22l-3.5-3.5c-.293-.293-.293-.768 0-1.061s.768-.293 1.061 0l3.5 3.5c.293.293.293.768 0 1.061-.147.147-.339.22-.531.22z"/><path d="m10.51 13h-5.76c-.414 0-.75-.336-.75-.75v-4.5c0-.414.336-.75.75-.75h14.5c.414 0 .75.336.75.75v1.18c0 .414-.336.75-.75.75s-.75-.336-.75-.75v-.43h-13v3h5.01c.414 0 .75.336.75.75s-.336.75-.75.75z"/><path d="m9.05 15.99h-4.25c-.414 0-.75-.336-.75-.75s.336-.75.75-.75h4.25c.414 0 .75.336.75.75s-.336.75-.75.75z"/><path d="m8.79 18.99h-3.99c-.414 0-.75-.336-.75-.75s.336-.75.75-.75h3.99c.414 0 .75.336.75.75s-.336.75-.75.75z"/><path d="m9.59 22h-6.84c-1.517 0-2.75-1.233-2.75-2.75v-16.5c0-1.517 1.233-2.75 2.75-2.75h18.5c1.517 0 2.75 1.233 2.75 2.75v8.17c0 .414-.336.75-.75.75s-.75-.336-.75-.75v-8.17c0-.689-.561-1.25-1.25-1.25h-18.5c-.689 0-1.25.561-1.25 1.25v16.5c0 .689.561 1.25 1.25 1.25h6.84c.414 0 .75.336.75.75s-.336.75-.75.75z"/><path d="m23.25 5h-22.5c-.414 0-.75-.336-.75-.75s.336-.75.75-.75h22.5c.414 0 .75.336.75.75s-.336.75-.75.75z"/></svg>